G04 #@! TF.GenerationSoftware,KiCad,Pcbnew,(5.1.5-0-10_14)*
G04 #@! TF.CreationDate,2021-11-11T15:24:48-05:00*
G04 #@! TF.ProjectId,Readout-DC-Board,52656164-6f75-4742-9d44-432d426f6172,rev?*
G04 #@! TF.SameCoordinates,Original*
G04 #@! TF.FileFunction,Copper,L4,Bot*
G04 #@! TF.FilePolarity,Positive*
%FSLAX46Y46*%
G04 Gerber Fmt 4.6, Leading zero omitted, Abs format (unit mm)*
G04 Created by KiCad (PCBNEW (5.1.5-0-10_14)) date 2021-11-11 15:24:48*
%MOMM*%
%LPD*%
G04 APERTURE LIST*
%ADD10R,3.150000X1.000000*%
%ADD11R,4.500000X3.300000*%
%ADD12C,1.790000*%
%ADD13R,1.790000X1.790000*%
%ADD14C,0.800000*%
%ADD15C,0.250000*%
%ADD16C,0.457200*%
G04 APERTURE END LIST*
D10*
X85710000Y-106680000D03*
X80660000Y-106680000D03*
X85710000Y-109220000D03*
X80660000Y-109220000D03*
X85710000Y-111760000D03*
X80660000Y-111760000D03*
X85710000Y-114300000D03*
X80660000Y-114300000D03*
X85710000Y-116840000D03*
X80660000Y-116840000D03*
D11*
X103460000Y-102616000D03*
X94660000Y-102616000D03*
D10*
X120000000Y-106680000D03*
X114950000Y-106680000D03*
X120000000Y-109220000D03*
X114950000Y-109220000D03*
X120000000Y-111760000D03*
X114950000Y-111760000D03*
X120000000Y-114300000D03*
X114950000Y-114300000D03*
X120000000Y-116840000D03*
X114950000Y-116840000D03*
D12*
X100296500Y-108458000D03*
X95216500Y-109728000D03*
X100296500Y-110998000D03*
X95216500Y-112268000D03*
X100296500Y-113538000D03*
X95216500Y-114808000D03*
D13*
X100296500Y-116078000D03*
D14*
X80645000Y-105410000D03*
X78486000Y-106680000D03*
X78486000Y-109220000D03*
X87884000Y-109220000D03*
X87884000Y-106680000D03*
X83185000Y-119380000D03*
X78435200Y-114300000D03*
X78435200Y-116840000D03*
X87884000Y-114300000D03*
X87884000Y-116840000D03*
X89662000Y-116840000D03*
X89408000Y-119126000D03*
X109982000Y-125476000D03*
X122174000Y-116840000D03*
X122174000Y-114300000D03*
X112776000Y-116840000D03*
X112776000Y-114300000D03*
X112014000Y-109220000D03*
X112014000Y-106680000D03*
X122936000Y-106680000D03*
X122936000Y-109220000D03*
X115316000Y-104140000D03*
D15*
X80660000Y-105425000D02*
X80645000Y-105410000D01*
D16*
X85710000Y-109220000D02*
X87884000Y-109220000D01*
X80660000Y-106680000D02*
X78486000Y-106680000D01*
X80660000Y-109220000D02*
X78486000Y-109220000D01*
X85710000Y-106680000D02*
X87884000Y-106680000D01*
X80660000Y-114300000D02*
X78435200Y-114300000D01*
X80660000Y-116840000D02*
X78486000Y-116840000D01*
X85710000Y-114300000D02*
X87884000Y-114300000D01*
X85710000Y-116840000D02*
X87884000Y-116840000D01*
X120000000Y-116840000D02*
X122174000Y-116840000D01*
X120000000Y-114300000D02*
X122174000Y-114300000D01*
X114950000Y-116840000D02*
X112776000Y-116840000D01*
X114950000Y-114300000D02*
X112776000Y-114300000D01*
X114950000Y-106680000D02*
X114950000Y-109220000D01*
X114950000Y-109220000D02*
X112014000Y-109220000D01*
X114950000Y-106680000D02*
X112014000Y-106680000D01*
X120000000Y-106680000D02*
X122936000Y-106680000D01*
X120000000Y-109220000D02*
X122936000Y-109220000D01*
M02*
