M48
; DRILL file {KiCad (5.1.5-0-10_14)} date Thursday, November 11, 2021 at 03:25:02 PM
; FORMAT={-:-/ absolute / inch / decimal}
; #@! TF.CreationDate,2021-11-11T15:25:02-05:00
; #@! TF.GenerationSoftware,Kicad,Pcbnew,(5.1.5-0-10_14)
; #@! TF.FileFunction,Plated,1,4,PTH
FMAT,2
INCH
T1C0.0157
T2C0.0469
T3C0.0472
%
G90
G05
T1
X3.088Y-4.5
X3.088Y-4.6
X3.09Y-4.2
X3.09Y-4.3
X3.175Y-4.15
X3.275Y-4.7
X3.46Y-4.2
X3.46Y-4.3
X3.46Y-4.5
X3.46Y-4.6
X3.52Y-4.69
X3.53Y-4.6
X4.33Y-4.94
X4.41Y-4.2
X4.41Y-4.3
X4.44Y-4.5
X4.44Y-4.6
X4.54Y-4.1
X4.81Y-4.5
X4.81Y-4.6
X4.84Y-4.2
X4.84Y-4.3
T2
X3.7487Y-4.32
X3.7487Y-4.42
X3.7487Y-4.52
X3.9487Y-4.27
X3.9487Y-4.37
X3.9487Y-4.47
X3.9487Y-4.57
T3
X3.7031Y-4.04
X4.0969Y-4.04
T0
M30
