%TF.GenerationSoftware,KiCad,Pcbnew,(5.1.10-1-10_14)*%
%TF.CreationDate,2021-10-31T04:10:36-04:00*%
%TF.ProjectId,Readout-DC-Board,52656164-6f75-4742-9d44-432d426f6172,rev?*%
%TF.SameCoordinates,Original*%
%TF.FileFunction,Copper,L2,Inr*%
%TF.FilePolarity,Positive*%
%FSLAX46Y46*%
G04 Gerber Fmt 4.6, Leading zero omitted, Abs format (unit mm)*
G04 Created by KiCad (PCBNEW (5.1.10-1-10_14)) date 2021-10-31 04:10:36*
%MOMM*%
%LPD*%
G01*
G04 APERTURE LIST*
%TA.AperFunction,ComponentPad*%
%ADD10R,4.500000X3.300000*%
%TD*%
%TA.AperFunction,ComponentPad*%
%ADD11C,1.790000*%
%TD*%
%TA.AperFunction,ComponentPad*%
%ADD12R,1.790000X1.790000*%
%TD*%
%TA.AperFunction,ViaPad*%
%ADD13C,0.800000*%
%TD*%
%TA.AperFunction,Conductor*%
%ADD14C,0.254000*%
%TD*%
%TA.AperFunction,Conductor*%
%ADD15C,0.100000*%
%TD*%
G04 APERTURE END LIST*
D10*
%TO.N,Net-(C3-Pad1)*%
%TO.C,D1*%
X95205000Y-100965000D03*
%TO.N,GND*%
X86405000Y-100965000D03*
%TD*%
D11*
%TO.N,Net-(U1-Pad7)*%
%TO.C,U1*%
X94267500Y-115570000D03*
%TO.N,Net-(R1-Pad2)*%
X99347500Y-114300000D03*
%TO.N,N/C*%
X94267500Y-113030000D03*
%TO.N,GND*%
X99347500Y-111760000D03*
%TO.N,Net-(C3-Pad2)*%
X94267500Y-110490000D03*
%TO.N,Net-(C1-Pad1)*%
X99347500Y-109220000D03*
D12*
%TO.N,Net-(C3-Pad1)*%
X94267500Y-107950000D03*
%TD*%
D13*
%TO.N,Net-(C1-Pad1)*%
X80645000Y-105410000D03*
%TO.N,GND*%
X90170000Y-117475000D03*
X83185000Y-119380000D03*
X104140000Y-106045000D03*
X114300000Y-125425200D03*
X117449600Y-116840000D03*
X117449600Y-114300000D03*
X78435200Y-114300000D03*
X78435200Y-116840000D03*
%TO.N,Net-(C4-Pad1)*%
X114947700Y-105651300D03*
%TD*%
D14*
%TO.N,GND*%
X123800001Y-126340000D02*
X76860000Y-126340000D01*
X76860000Y-107055000D01*
X92734428Y-107055000D01*
X92734428Y-108845000D01*
X92746688Y-108969482D01*
X92782998Y-109089180D01*
X92841963Y-109199494D01*
X92921315Y-109296185D01*
X93018006Y-109375537D01*
X93128320Y-109434502D01*
X93152052Y-109441701D01*
X93079071Y-109514682D01*
X92911632Y-109765273D01*
X92796297Y-110043715D01*
X92737500Y-110339308D01*
X92737500Y-110640692D01*
X92796297Y-110936285D01*
X92911632Y-111214727D01*
X93079071Y-111465318D01*
X93292182Y-111678429D01*
X93414262Y-111760000D01*
X93292182Y-111841571D01*
X93079071Y-112054682D01*
X92911632Y-112305273D01*
X92796297Y-112583715D01*
X92737500Y-112879308D01*
X92737500Y-113180692D01*
X92796297Y-113476285D01*
X92911632Y-113754727D01*
X93079071Y-114005318D01*
X93292182Y-114218429D01*
X93414262Y-114300000D01*
X93292182Y-114381571D01*
X93079071Y-114594682D01*
X92911632Y-114845273D01*
X92796297Y-115123715D01*
X92737500Y-115419308D01*
X92737500Y-115720692D01*
X92796297Y-116016285D01*
X92911632Y-116294727D01*
X93079071Y-116545318D01*
X93292182Y-116758429D01*
X93542773Y-116925868D01*
X93821215Y-117041203D01*
X94116808Y-117100000D01*
X94418192Y-117100000D01*
X94713785Y-117041203D01*
X94992227Y-116925868D01*
X95242818Y-116758429D01*
X95455929Y-116545318D01*
X95623368Y-116294727D01*
X95738703Y-116016285D01*
X95797500Y-115720692D01*
X95797500Y-115419308D01*
X95738703Y-115123715D01*
X95623368Y-114845273D01*
X95455929Y-114594682D01*
X95242818Y-114381571D01*
X95120738Y-114300000D01*
X95242818Y-114218429D01*
X95311939Y-114149308D01*
X97817500Y-114149308D01*
X97817500Y-114450692D01*
X97876297Y-114746285D01*
X97991632Y-115024727D01*
X98159071Y-115275318D01*
X98372182Y-115488429D01*
X98622773Y-115655868D01*
X98901215Y-115771203D01*
X99196808Y-115830000D01*
X99498192Y-115830000D01*
X99793785Y-115771203D01*
X100072227Y-115655868D01*
X100322818Y-115488429D01*
X100535929Y-115275318D01*
X100703368Y-115024727D01*
X100818703Y-114746285D01*
X100877500Y-114450692D01*
X100877500Y-114149308D01*
X100818703Y-113853715D01*
X100703368Y-113575273D01*
X100535929Y-113324682D01*
X100322818Y-113111571D01*
X100167149Y-113007557D01*
X100228407Y-112820512D01*
X99347500Y-111939605D01*
X98466593Y-112820512D01*
X98527851Y-113007557D01*
X98372182Y-113111571D01*
X98159071Y-113324682D01*
X97991632Y-113575273D01*
X97876297Y-113853715D01*
X97817500Y-114149308D01*
X95311939Y-114149308D01*
X95455929Y-114005318D01*
X95623368Y-113754727D01*
X95738703Y-113476285D01*
X95797500Y-113180692D01*
X95797500Y-112879308D01*
X95738703Y-112583715D01*
X95623368Y-112305273D01*
X95455929Y-112054682D01*
X95242818Y-111841571D01*
X95220639Y-111826751D01*
X97811547Y-111826751D01*
X97854082Y-112125117D01*
X97954008Y-112409453D01*
X98033317Y-112557829D01*
X98286988Y-112640907D01*
X99167895Y-111760000D01*
X99527105Y-111760000D01*
X100408012Y-112640907D01*
X100661683Y-112557829D01*
X100792080Y-112286115D01*
X100866963Y-111994182D01*
X100883453Y-111693249D01*
X100840918Y-111394883D01*
X100740992Y-111110547D01*
X100661683Y-110962171D01*
X100408012Y-110879093D01*
X99527105Y-111760000D01*
X99167895Y-111760000D01*
X98286988Y-110879093D01*
X98033317Y-110962171D01*
X97902920Y-111233885D01*
X97828037Y-111525818D01*
X97811547Y-111826751D01*
X95220639Y-111826751D01*
X95120738Y-111760000D01*
X95242818Y-111678429D01*
X95455929Y-111465318D01*
X95623368Y-111214727D01*
X95738703Y-110936285D01*
X95797500Y-110640692D01*
X95797500Y-110339308D01*
X95738703Y-110043715D01*
X95623368Y-109765273D01*
X95455929Y-109514682D01*
X95382948Y-109441701D01*
X95406680Y-109434502D01*
X95516994Y-109375537D01*
X95613685Y-109296185D01*
X95693037Y-109199494D01*
X95752002Y-109089180D01*
X95758030Y-109069308D01*
X97817500Y-109069308D01*
X97817500Y-109370692D01*
X97876297Y-109666285D01*
X97991632Y-109944727D01*
X98159071Y-110195318D01*
X98372182Y-110408429D01*
X98527851Y-110512443D01*
X98466593Y-110699488D01*
X99347500Y-111580395D01*
X100228407Y-110699488D01*
X100167149Y-110512443D01*
X100322818Y-110408429D01*
X100535929Y-110195318D01*
X100703368Y-109944727D01*
X100818703Y-109666285D01*
X100877500Y-109370692D01*
X100877500Y-109069308D01*
X100818703Y-108773715D01*
X100703368Y-108495273D01*
X100535929Y-108244682D01*
X100322818Y-108031571D01*
X100072227Y-107864132D01*
X99793785Y-107748797D01*
X99498192Y-107690000D01*
X99196808Y-107690000D01*
X98901215Y-107748797D01*
X98622773Y-107864132D01*
X98372182Y-108031571D01*
X98159071Y-108244682D01*
X97991632Y-108495273D01*
X97876297Y-108773715D01*
X97817500Y-109069308D01*
X95758030Y-109069308D01*
X95788312Y-108969482D01*
X95800572Y-108845000D01*
X95800572Y-107055000D01*
X95788312Y-106930518D01*
X95752002Y-106810820D01*
X95693037Y-106700506D01*
X95613685Y-106603815D01*
X95516994Y-106524463D01*
X95406680Y-106465498D01*
X95286982Y-106429188D01*
X95162500Y-106416928D01*
X93372500Y-106416928D01*
X93248018Y-106429188D01*
X93128320Y-106465498D01*
X93018006Y-106524463D01*
X92921315Y-106603815D01*
X92841963Y-106700506D01*
X92782998Y-106810820D01*
X92746688Y-106930518D01*
X92734428Y-107055000D01*
X76860000Y-107055000D01*
X76860000Y-105308061D01*
X79610000Y-105308061D01*
X79610000Y-105511939D01*
X79649774Y-105711898D01*
X79727795Y-105900256D01*
X79841063Y-106069774D01*
X79985226Y-106213937D01*
X80154744Y-106327205D01*
X80343102Y-106405226D01*
X80543061Y-106445000D01*
X80746939Y-106445000D01*
X80946898Y-106405226D01*
X81135256Y-106327205D01*
X81304774Y-106213937D01*
X81448937Y-106069774D01*
X81562205Y-105900256D01*
X81640226Y-105711898D01*
X81672556Y-105549361D01*
X113912700Y-105549361D01*
X113912700Y-105753239D01*
X113952474Y-105953198D01*
X114030495Y-106141556D01*
X114143763Y-106311074D01*
X114287926Y-106455237D01*
X114457444Y-106568505D01*
X114645802Y-106646526D01*
X114845761Y-106686300D01*
X115049639Y-106686300D01*
X115249598Y-106646526D01*
X115437956Y-106568505D01*
X115607474Y-106455237D01*
X115751637Y-106311074D01*
X115864905Y-106141556D01*
X115942926Y-105953198D01*
X115982700Y-105753239D01*
X115982700Y-105549361D01*
X115942926Y-105349402D01*
X115864905Y-105161044D01*
X115751637Y-104991526D01*
X115607474Y-104847363D01*
X115437956Y-104734095D01*
X115249598Y-104656074D01*
X115049639Y-104616300D01*
X114845761Y-104616300D01*
X114645802Y-104656074D01*
X114457444Y-104734095D01*
X114287926Y-104847363D01*
X114143763Y-104991526D01*
X114030495Y-105161044D01*
X113952474Y-105349402D01*
X113912700Y-105549361D01*
X81672556Y-105549361D01*
X81680000Y-105511939D01*
X81680000Y-105308061D01*
X81640226Y-105108102D01*
X81562205Y-104919744D01*
X81448937Y-104750226D01*
X81304774Y-104606063D01*
X81135256Y-104492795D01*
X80946898Y-104414774D01*
X80746939Y-104375000D01*
X80543061Y-104375000D01*
X80343102Y-104414774D01*
X80154744Y-104492795D01*
X79985226Y-104606063D01*
X79841063Y-104750226D01*
X79727795Y-104919744D01*
X79649774Y-105108102D01*
X79610000Y-105308061D01*
X76860000Y-105308061D01*
X76860000Y-102615000D01*
X83516928Y-102615000D01*
X83529188Y-102739482D01*
X83565498Y-102859180D01*
X83624463Y-102969494D01*
X83703815Y-103066185D01*
X83800506Y-103145537D01*
X83910820Y-103204502D01*
X84030518Y-103240812D01*
X84155000Y-103253072D01*
X86119250Y-103250000D01*
X86278000Y-103091250D01*
X86278000Y-101092000D01*
X86532000Y-101092000D01*
X86532000Y-103091250D01*
X86690750Y-103250000D01*
X88655000Y-103253072D01*
X88779482Y-103240812D01*
X88899180Y-103204502D01*
X89009494Y-103145537D01*
X89106185Y-103066185D01*
X89185537Y-102969494D01*
X89244502Y-102859180D01*
X89280812Y-102739482D01*
X89293072Y-102615000D01*
X89290000Y-101250750D01*
X89131250Y-101092000D01*
X86532000Y-101092000D01*
X86278000Y-101092000D01*
X83678750Y-101092000D01*
X83520000Y-101250750D01*
X83516928Y-102615000D01*
X76860000Y-102615000D01*
X76860000Y-99315000D01*
X83516928Y-99315000D01*
X83520000Y-100679250D01*
X83678750Y-100838000D01*
X86278000Y-100838000D01*
X86278000Y-98838750D01*
X86532000Y-98838750D01*
X86532000Y-100838000D01*
X89131250Y-100838000D01*
X89290000Y-100679250D01*
X89293072Y-99315000D01*
X92316928Y-99315000D01*
X92316928Y-102615000D01*
X92329188Y-102739482D01*
X92365498Y-102859180D01*
X92424463Y-102969494D01*
X92503815Y-103066185D01*
X92600506Y-103145537D01*
X92710820Y-103204502D01*
X92830518Y-103240812D01*
X92955000Y-103253072D01*
X97455000Y-103253072D01*
X97579482Y-103240812D01*
X97699180Y-103204502D01*
X97809494Y-103145537D01*
X97906185Y-103066185D01*
X97985537Y-102969494D01*
X98044502Y-102859180D01*
X98080812Y-102739482D01*
X98093072Y-102615000D01*
X98093072Y-99315000D01*
X98080812Y-99190518D01*
X98044502Y-99070820D01*
X97985537Y-98960506D01*
X97906185Y-98863815D01*
X97809494Y-98784463D01*
X97699180Y-98725498D01*
X97579482Y-98689188D01*
X97455000Y-98676928D01*
X92955000Y-98676928D01*
X92830518Y-98689188D01*
X92710820Y-98725498D01*
X92600506Y-98784463D01*
X92503815Y-98863815D01*
X92424463Y-98960506D01*
X92365498Y-99070820D01*
X92329188Y-99190518D01*
X92316928Y-99315000D01*
X89293072Y-99315000D01*
X89280812Y-99190518D01*
X89244502Y-99070820D01*
X89185537Y-98960506D01*
X89106185Y-98863815D01*
X89009494Y-98784463D01*
X88899180Y-98725498D01*
X88779482Y-98689188D01*
X88655000Y-98676928D01*
X86690750Y-98680000D01*
X86532000Y-98838750D01*
X86278000Y-98838750D01*
X86119250Y-98680000D01*
X84155000Y-98676928D01*
X84030518Y-98689188D01*
X83910820Y-98725498D01*
X83800506Y-98784463D01*
X83703815Y-98863815D01*
X83624463Y-98960506D01*
X83565498Y-99070820D01*
X83529188Y-99190518D01*
X83516928Y-99315000D01*
X76860000Y-99315000D01*
X76860000Y-97180000D01*
X123800000Y-97180000D01*
X123800001Y-126340000D01*
%TA.AperFunction,Conductor*%
D15*
G36*
X123800001Y-126340000D02*
G01*
X76860000Y-126340000D01*
X76860000Y-107055000D01*
X92734428Y-107055000D01*
X92734428Y-108845000D01*
X92746688Y-108969482D01*
X92782998Y-109089180D01*
X92841963Y-109199494D01*
X92921315Y-109296185D01*
X93018006Y-109375537D01*
X93128320Y-109434502D01*
X93152052Y-109441701D01*
X93079071Y-109514682D01*
X92911632Y-109765273D01*
X92796297Y-110043715D01*
X92737500Y-110339308D01*
X92737500Y-110640692D01*
X92796297Y-110936285D01*
X92911632Y-111214727D01*
X93079071Y-111465318D01*
X93292182Y-111678429D01*
X93414262Y-111760000D01*
X93292182Y-111841571D01*
X93079071Y-112054682D01*
X92911632Y-112305273D01*
X92796297Y-112583715D01*
X92737500Y-112879308D01*
X92737500Y-113180692D01*
X92796297Y-113476285D01*
X92911632Y-113754727D01*
X93079071Y-114005318D01*
X93292182Y-114218429D01*
X93414262Y-114300000D01*
X93292182Y-114381571D01*
X93079071Y-114594682D01*
X92911632Y-114845273D01*
X92796297Y-115123715D01*
X92737500Y-115419308D01*
X92737500Y-115720692D01*
X92796297Y-116016285D01*
X92911632Y-116294727D01*
X93079071Y-116545318D01*
X93292182Y-116758429D01*
X93542773Y-116925868D01*
X93821215Y-117041203D01*
X94116808Y-117100000D01*
X94418192Y-117100000D01*
X94713785Y-117041203D01*
X94992227Y-116925868D01*
X95242818Y-116758429D01*
X95455929Y-116545318D01*
X95623368Y-116294727D01*
X95738703Y-116016285D01*
X95797500Y-115720692D01*
X95797500Y-115419308D01*
X95738703Y-115123715D01*
X95623368Y-114845273D01*
X95455929Y-114594682D01*
X95242818Y-114381571D01*
X95120738Y-114300000D01*
X95242818Y-114218429D01*
X95311939Y-114149308D01*
X97817500Y-114149308D01*
X97817500Y-114450692D01*
X97876297Y-114746285D01*
X97991632Y-115024727D01*
X98159071Y-115275318D01*
X98372182Y-115488429D01*
X98622773Y-115655868D01*
X98901215Y-115771203D01*
X99196808Y-115830000D01*
X99498192Y-115830000D01*
X99793785Y-115771203D01*
X100072227Y-115655868D01*
X100322818Y-115488429D01*
X100535929Y-115275318D01*
X100703368Y-115024727D01*
X100818703Y-114746285D01*
X100877500Y-114450692D01*
X100877500Y-114149308D01*
X100818703Y-113853715D01*
X100703368Y-113575273D01*
X100535929Y-113324682D01*
X100322818Y-113111571D01*
X100167149Y-113007557D01*
X100228407Y-112820512D01*
X99347500Y-111939605D01*
X98466593Y-112820512D01*
X98527851Y-113007557D01*
X98372182Y-113111571D01*
X98159071Y-113324682D01*
X97991632Y-113575273D01*
X97876297Y-113853715D01*
X97817500Y-114149308D01*
X95311939Y-114149308D01*
X95455929Y-114005318D01*
X95623368Y-113754727D01*
X95738703Y-113476285D01*
X95797500Y-113180692D01*
X95797500Y-112879308D01*
X95738703Y-112583715D01*
X95623368Y-112305273D01*
X95455929Y-112054682D01*
X95242818Y-111841571D01*
X95220639Y-111826751D01*
X97811547Y-111826751D01*
X97854082Y-112125117D01*
X97954008Y-112409453D01*
X98033317Y-112557829D01*
X98286988Y-112640907D01*
X99167895Y-111760000D01*
X99527105Y-111760000D01*
X100408012Y-112640907D01*
X100661683Y-112557829D01*
X100792080Y-112286115D01*
X100866963Y-111994182D01*
X100883453Y-111693249D01*
X100840918Y-111394883D01*
X100740992Y-111110547D01*
X100661683Y-110962171D01*
X100408012Y-110879093D01*
X99527105Y-111760000D01*
X99167895Y-111760000D01*
X98286988Y-110879093D01*
X98033317Y-110962171D01*
X97902920Y-111233885D01*
X97828037Y-111525818D01*
X97811547Y-111826751D01*
X95220639Y-111826751D01*
X95120738Y-111760000D01*
X95242818Y-111678429D01*
X95455929Y-111465318D01*
X95623368Y-111214727D01*
X95738703Y-110936285D01*
X95797500Y-110640692D01*
X95797500Y-110339308D01*
X95738703Y-110043715D01*
X95623368Y-109765273D01*
X95455929Y-109514682D01*
X95382948Y-109441701D01*
X95406680Y-109434502D01*
X95516994Y-109375537D01*
X95613685Y-109296185D01*
X95693037Y-109199494D01*
X95752002Y-109089180D01*
X95758030Y-109069308D01*
X97817500Y-109069308D01*
X97817500Y-109370692D01*
X97876297Y-109666285D01*
X97991632Y-109944727D01*
X98159071Y-110195318D01*
X98372182Y-110408429D01*
X98527851Y-110512443D01*
X98466593Y-110699488D01*
X99347500Y-111580395D01*
X100228407Y-110699488D01*
X100167149Y-110512443D01*
X100322818Y-110408429D01*
X100535929Y-110195318D01*
X100703368Y-109944727D01*
X100818703Y-109666285D01*
X100877500Y-109370692D01*
X100877500Y-109069308D01*
X100818703Y-108773715D01*
X100703368Y-108495273D01*
X100535929Y-108244682D01*
X100322818Y-108031571D01*
X100072227Y-107864132D01*
X99793785Y-107748797D01*
X99498192Y-107690000D01*
X99196808Y-107690000D01*
X98901215Y-107748797D01*
X98622773Y-107864132D01*
X98372182Y-108031571D01*
X98159071Y-108244682D01*
X97991632Y-108495273D01*
X97876297Y-108773715D01*
X97817500Y-109069308D01*
X95758030Y-109069308D01*
X95788312Y-108969482D01*
X95800572Y-108845000D01*
X95800572Y-107055000D01*
X95788312Y-106930518D01*
X95752002Y-106810820D01*
X95693037Y-106700506D01*
X95613685Y-106603815D01*
X95516994Y-106524463D01*
X95406680Y-106465498D01*
X95286982Y-106429188D01*
X95162500Y-106416928D01*
X93372500Y-106416928D01*
X93248018Y-106429188D01*
X93128320Y-106465498D01*
X93018006Y-106524463D01*
X92921315Y-106603815D01*
X92841963Y-106700506D01*
X92782998Y-106810820D01*
X92746688Y-106930518D01*
X92734428Y-107055000D01*
X76860000Y-107055000D01*
X76860000Y-105308061D01*
X79610000Y-105308061D01*
X79610000Y-105511939D01*
X79649774Y-105711898D01*
X79727795Y-105900256D01*
X79841063Y-106069774D01*
X79985226Y-106213937D01*
X80154744Y-106327205D01*
X80343102Y-106405226D01*
X80543061Y-106445000D01*
X80746939Y-106445000D01*
X80946898Y-106405226D01*
X81135256Y-106327205D01*
X81304774Y-106213937D01*
X81448937Y-106069774D01*
X81562205Y-105900256D01*
X81640226Y-105711898D01*
X81672556Y-105549361D01*
X113912700Y-105549361D01*
X113912700Y-105753239D01*
X113952474Y-105953198D01*
X114030495Y-106141556D01*
X114143763Y-106311074D01*
X114287926Y-106455237D01*
X114457444Y-106568505D01*
X114645802Y-106646526D01*
X114845761Y-106686300D01*
X115049639Y-106686300D01*
X115249598Y-106646526D01*
X115437956Y-106568505D01*
X115607474Y-106455237D01*
X115751637Y-106311074D01*
X115864905Y-106141556D01*
X115942926Y-105953198D01*
X115982700Y-105753239D01*
X115982700Y-105549361D01*
X115942926Y-105349402D01*
X115864905Y-105161044D01*
X115751637Y-104991526D01*
X115607474Y-104847363D01*
X115437956Y-104734095D01*
X115249598Y-104656074D01*
X115049639Y-104616300D01*
X114845761Y-104616300D01*
X114645802Y-104656074D01*
X114457444Y-104734095D01*
X114287926Y-104847363D01*
X114143763Y-104991526D01*
X114030495Y-105161044D01*
X113952474Y-105349402D01*
X113912700Y-105549361D01*
X81672556Y-105549361D01*
X81680000Y-105511939D01*
X81680000Y-105308061D01*
X81640226Y-105108102D01*
X81562205Y-104919744D01*
X81448937Y-104750226D01*
X81304774Y-104606063D01*
X81135256Y-104492795D01*
X80946898Y-104414774D01*
X80746939Y-104375000D01*
X80543061Y-104375000D01*
X80343102Y-104414774D01*
X80154744Y-104492795D01*
X79985226Y-104606063D01*
X79841063Y-104750226D01*
X79727795Y-104919744D01*
X79649774Y-105108102D01*
X79610000Y-105308061D01*
X76860000Y-105308061D01*
X76860000Y-102615000D01*
X83516928Y-102615000D01*
X83529188Y-102739482D01*
X83565498Y-102859180D01*
X83624463Y-102969494D01*
X83703815Y-103066185D01*
X83800506Y-103145537D01*
X83910820Y-103204502D01*
X84030518Y-103240812D01*
X84155000Y-103253072D01*
X86119250Y-103250000D01*
X86278000Y-103091250D01*
X86278000Y-101092000D01*
X86532000Y-101092000D01*
X86532000Y-103091250D01*
X86690750Y-103250000D01*
X88655000Y-103253072D01*
X88779482Y-103240812D01*
X88899180Y-103204502D01*
X89009494Y-103145537D01*
X89106185Y-103066185D01*
X89185537Y-102969494D01*
X89244502Y-102859180D01*
X89280812Y-102739482D01*
X89293072Y-102615000D01*
X89290000Y-101250750D01*
X89131250Y-101092000D01*
X86532000Y-101092000D01*
X86278000Y-101092000D01*
X83678750Y-101092000D01*
X83520000Y-101250750D01*
X83516928Y-102615000D01*
X76860000Y-102615000D01*
X76860000Y-99315000D01*
X83516928Y-99315000D01*
X83520000Y-100679250D01*
X83678750Y-100838000D01*
X86278000Y-100838000D01*
X86278000Y-98838750D01*
X86532000Y-98838750D01*
X86532000Y-100838000D01*
X89131250Y-100838000D01*
X89290000Y-100679250D01*
X89293072Y-99315000D01*
X92316928Y-99315000D01*
X92316928Y-102615000D01*
X92329188Y-102739482D01*
X92365498Y-102859180D01*
X92424463Y-102969494D01*
X92503815Y-103066185D01*
X92600506Y-103145537D01*
X92710820Y-103204502D01*
X92830518Y-103240812D01*
X92955000Y-103253072D01*
X97455000Y-103253072D01*
X97579482Y-103240812D01*
X97699180Y-103204502D01*
X97809494Y-103145537D01*
X97906185Y-103066185D01*
X97985537Y-102969494D01*
X98044502Y-102859180D01*
X98080812Y-102739482D01*
X98093072Y-102615000D01*
X98093072Y-99315000D01*
X98080812Y-99190518D01*
X98044502Y-99070820D01*
X97985537Y-98960506D01*
X97906185Y-98863815D01*
X97809494Y-98784463D01*
X97699180Y-98725498D01*
X97579482Y-98689188D01*
X97455000Y-98676928D01*
X92955000Y-98676928D01*
X92830518Y-98689188D01*
X92710820Y-98725498D01*
X92600506Y-98784463D01*
X92503815Y-98863815D01*
X92424463Y-98960506D01*
X92365498Y-99070820D01*
X92329188Y-99190518D01*
X92316928Y-99315000D01*
X89293072Y-99315000D01*
X89280812Y-99190518D01*
X89244502Y-99070820D01*
X89185537Y-98960506D01*
X89106185Y-98863815D01*
X89009494Y-98784463D01*
X88899180Y-98725498D01*
X88779482Y-98689188D01*
X88655000Y-98676928D01*
X86690750Y-98680000D01*
X86532000Y-98838750D01*
X86278000Y-98838750D01*
X86119250Y-98680000D01*
X84155000Y-98676928D01*
X84030518Y-98689188D01*
X83910820Y-98725498D01*
X83800506Y-98784463D01*
X83703815Y-98863815D01*
X83624463Y-98960506D01*
X83565498Y-99070820D01*
X83529188Y-99190518D01*
X83516928Y-99315000D01*
X76860000Y-99315000D01*
X76860000Y-97180000D01*
X123800000Y-97180000D01*
X123800001Y-126340000D01*
G37*
%TD.AperFunction*%
%TD*%
M02*
