G04 #@! TF.GenerationSoftware,KiCad,Pcbnew,(5.1.10-1-10_14)*
G04 #@! TF.CreationDate,2021-10-31T20:43:21-04:00*
G04 #@! TF.ProjectId,Readout-DC-Board,52656164-6f75-4742-9d44-432d426f6172,rev?*
G04 #@! TF.SameCoordinates,Original*
G04 #@! TF.FileFunction,Copper,L1,Top*
G04 #@! TF.FilePolarity,Positive*
%FSLAX46Y46*%
G04 Gerber Fmt 4.6, Leading zero omitted, Abs format (unit mm)*
G04 Created by KiCad (PCBNEW (5.1.10-1-10_14)) date 2021-10-31 20:43:21*
%MOMM*%
%LPD*%
G01*
G04 APERTURE LIST*
G04 #@! TA.AperFunction,SMDPad,CuDef*
%ADD10R,3.000000X5.500000*%
G04 #@! TD*
G04 #@! TA.AperFunction,SMDPad,CuDef*
%ADD11R,1.900000X4.400000*%
G04 #@! TD*
G04 #@! TA.AperFunction,SMDPad,CuDef*
%ADD12R,1.250000X1.500000*%
G04 #@! TD*
G04 #@! TA.AperFunction,SMDPad,CuDef*
%ADD13R,1.900000X4.200000*%
G04 #@! TD*
G04 #@! TA.AperFunction,ComponentPad*
%ADD14R,4.500000X3.300000*%
G04 #@! TD*
G04 #@! TA.AperFunction,SMDPad,CuDef*
%ADD15R,1.700000X2.000000*%
G04 #@! TD*
G04 #@! TA.AperFunction,SMDPad,CuDef*
%ADD16R,2.000000X1.700000*%
G04 #@! TD*
G04 #@! TA.AperFunction,ComponentPad*
%ADD17C,1.790000*%
G04 #@! TD*
G04 #@! TA.AperFunction,ComponentPad*
%ADD18R,1.790000X1.790000*%
G04 #@! TD*
G04 #@! TA.AperFunction,ViaPad*
%ADD19C,0.800000*%
G04 #@! TD*
G04 #@! TA.AperFunction,Conductor*
%ADD20C,0.304800*%
G04 #@! TD*
G04 #@! TA.AperFunction,Conductor*
%ADD21C,0.250000*%
G04 #@! TD*
G04 APERTURE END LIST*
D10*
X109550000Y-104140000D03*
X119050000Y-104140000D03*
D11*
X83185000Y-115475000D03*
X83185000Y-106775000D03*
D12*
X90170000Y-113050000D03*
X90170000Y-115550000D03*
X92075000Y-107990000D03*
X92075000Y-110490000D03*
D13*
X114300000Y-122580000D03*
X114300000Y-116180000D03*
D14*
X95205000Y-100965000D03*
X86405000Y-100965000D03*
D15*
X104140000Y-108395000D03*
X104140000Y-112395000D03*
D16*
X108204000Y-115697000D03*
X104204000Y-115697000D03*
D17*
X94267500Y-115570000D03*
X99347500Y-114300000D03*
X94267500Y-113030000D03*
X99347500Y-111760000D03*
X94267500Y-110490000D03*
X99347500Y-109220000D03*
D18*
X94267500Y-107950000D03*
D19*
X80645000Y-105410000D03*
X90170000Y-117475000D03*
X83185000Y-119380000D03*
X104140000Y-106045000D03*
X114300000Y-125425200D03*
X117449600Y-116840000D03*
X117449600Y-114300000D03*
X78435200Y-114300000D03*
X78435200Y-116840000D03*
X114947700Y-105651300D03*
D20*
X80645000Y-105410000D02*
X81280000Y-104775000D01*
X81280000Y-104775000D02*
X83185000Y-104775000D01*
D21*
X83191600Y-106781600D02*
X83185000Y-106775000D01*
D20*
X88766400Y-106775000D02*
X83185000Y-106775000D01*
X90170000Y-108178600D02*
X88766400Y-106775000D01*
X99347500Y-109220000D02*
X90297000Y-109220000D01*
X90170000Y-109347000D02*
X90170000Y-108178600D01*
D21*
X90297000Y-109220000D02*
X90170000Y-109347000D01*
D20*
X90170000Y-113050000D02*
X90170000Y-109347000D01*
X90170000Y-115550000D02*
X90170000Y-117475000D01*
X83185000Y-115475000D02*
X83185000Y-119380000D01*
X104140000Y-108395000D02*
X104140000Y-106045000D01*
X114300000Y-122580000D02*
X114300000Y-125425200D01*
D21*
X94227500Y-107990000D02*
X94267500Y-107950000D01*
D20*
X92075000Y-107990000D02*
X94227500Y-107990000D01*
X95805000Y-103508800D02*
X95805000Y-100965000D01*
X94267500Y-105046300D02*
X95805000Y-103508800D01*
X94267500Y-107950000D02*
X94267500Y-105046300D01*
X109550000Y-104140000D02*
X106375200Y-104140000D01*
X103200200Y-100965000D02*
X95805000Y-100965000D01*
X106375200Y-104140000D02*
X103200200Y-100965000D01*
X92075000Y-110490000D02*
X94267500Y-110490000D01*
X119050000Y-104140000D02*
X116459000Y-104140000D01*
X114300000Y-106299000D02*
X114300000Y-116180000D01*
X116459000Y-104140000D02*
X114947700Y-105651300D01*
X114947700Y-105651300D02*
X114300000Y-106299000D01*
D21*
X111227000Y-116180000D02*
X114300000Y-116180000D01*
X110744000Y-115697000D02*
X111227000Y-116180000D01*
X108204000Y-115697000D02*
X110744000Y-115697000D01*
D20*
X104140000Y-112395000D02*
X104140000Y-115475000D01*
X99347500Y-114300000D02*
X100515900Y-115468400D01*
D21*
X104133400Y-115468400D02*
X104140000Y-115475000D01*
D20*
X100515900Y-115468400D02*
X104133400Y-115468400D01*
M02*
