G04 #@! TF.GenerationSoftware,KiCad,Pcbnew,(5.1.10-1-10_14)*
G04 #@! TF.CreationDate,2021-10-31T20:43:21-04:00*
G04 #@! TF.ProjectId,Readout-DC-Board,52656164-6f75-4742-9d44-432d426f6172,rev?*
G04 #@! TF.SameCoordinates,Original*
G04 #@! TF.FileFunction,Copper,L4,Bot*
G04 #@! TF.FilePolarity,Positive*
%FSLAX46Y46*%
G04 Gerber Fmt 4.6, Leading zero omitted, Abs format (unit mm)*
G04 Created by KiCad (PCBNEW (5.1.10-1-10_14)) date 2021-10-31 20:43:21*
%MOMM*%
%LPD*%
G01*
G04 APERTURE LIST*
G04 #@! TA.AperFunction,SMDPad,CuDef*
%ADD10R,3.150000X1.000000*%
G04 #@! TD*
G04 #@! TA.AperFunction,ComponentPad*
%ADD11R,4.500000X3.300000*%
G04 #@! TD*
G04 #@! TA.AperFunction,ComponentPad*
%ADD12C,1.790000*%
G04 #@! TD*
G04 #@! TA.AperFunction,ComponentPad*
%ADD13R,1.790000X1.790000*%
G04 #@! TD*
G04 #@! TA.AperFunction,ViaPad*
%ADD14C,0.800000*%
G04 #@! TD*
G04 #@! TA.AperFunction,Conductor*
%ADD15C,0.304800*%
G04 #@! TD*
G04 #@! TA.AperFunction,Conductor*
%ADD16C,0.250000*%
G04 #@! TD*
G04 APERTURE END LIST*
D10*
X85710000Y-106680000D03*
X80660000Y-106680000D03*
X85710000Y-109220000D03*
X80660000Y-109220000D03*
X85710000Y-111760000D03*
X80660000Y-111760000D03*
X85710000Y-114300000D03*
X80660000Y-114300000D03*
X85710000Y-116840000D03*
X80660000Y-116840000D03*
D11*
X95205000Y-100965000D03*
X86405000Y-100965000D03*
D10*
X120000000Y-106680000D03*
X114950000Y-106680000D03*
X120000000Y-109220000D03*
X114950000Y-109220000D03*
X120000000Y-111760000D03*
X114950000Y-111760000D03*
X120000000Y-114300000D03*
X114950000Y-114300000D03*
X120000000Y-116840000D03*
X114950000Y-116840000D03*
D12*
X94267500Y-115570000D03*
X99347500Y-114300000D03*
X94267500Y-113030000D03*
X99347500Y-111760000D03*
X94267500Y-110490000D03*
X99347500Y-109220000D03*
D13*
X94267500Y-107950000D03*
D14*
X80645000Y-105410000D03*
X90170000Y-117475000D03*
X83185000Y-119380000D03*
X104140000Y-106045000D03*
X114300000Y-125425200D03*
X117449600Y-116840000D03*
X117449600Y-114300000D03*
X78435200Y-114300000D03*
X78435200Y-116840000D03*
X114947700Y-105651300D03*
D15*
X80660000Y-106680000D02*
X80660000Y-109220000D01*
X85710000Y-106680000D02*
X85710000Y-109220000D01*
D16*
X80660000Y-106680000D02*
X80660000Y-107330000D01*
X80660000Y-105425000D02*
X80645000Y-105410000D01*
X80660000Y-106680000D02*
X80660000Y-105425000D01*
D15*
X85710000Y-106680000D02*
X80660000Y-106680000D01*
X85710000Y-109220000D02*
X80660000Y-109220000D01*
X80660000Y-114300000D02*
X80660000Y-116840000D01*
X85710000Y-114300000D02*
X85710000Y-116840000D01*
D16*
X120000000Y-114300000D02*
X120000000Y-116840000D01*
X114950000Y-114300000D02*
X114950000Y-116840000D01*
D15*
X114950000Y-116840000D02*
X117449600Y-116840000D01*
X117449600Y-116840000D02*
X120000000Y-116840000D01*
X114950000Y-114300000D02*
X117449600Y-114300000D01*
X117449600Y-114300000D02*
X120000000Y-114300000D01*
X80660000Y-114300000D02*
X85710000Y-114300000D01*
X80660000Y-116840000D02*
X85710000Y-116840000D01*
X80660000Y-114300000D02*
X78435200Y-114300000D01*
X80660000Y-116840000D02*
X78486000Y-116840000D01*
X120000000Y-109220000D02*
X120000000Y-106680000D01*
X114950000Y-106680000D02*
X120000000Y-106680000D01*
X120000000Y-109220000D02*
X114950000Y-109220000D01*
X114950000Y-107833400D02*
X114950000Y-105653600D01*
X114950000Y-109220000D02*
X114950000Y-107833400D01*
D16*
X114950000Y-105653600D02*
X114947700Y-105651300D01*
X114950000Y-107833400D02*
X114950000Y-106680000D01*
M02*
