G04 #@! TF.GenerationSoftware,KiCad,Pcbnew,(5.1.5-0-10_14)*
G04 #@! TF.CreationDate,2021-11-11T15:24:48-05:00*
G04 #@! TF.ProjectId,Readout-DC-Board,52656164-6f75-4742-9d44-432d426f6172,rev?*
G04 #@! TF.SameCoordinates,Original*
G04 #@! TF.FileFunction,Copper,L2,Inr*
G04 #@! TF.FilePolarity,Positive*
%FSLAX46Y46*%
G04 Gerber Fmt 4.6, Leading zero omitted, Abs format (unit mm)*
G04 Created by KiCad (PCBNEW (5.1.5-0-10_14)) date 2021-11-11 15:24:48*
%MOMM*%
%LPD*%
G04 APERTURE LIST*
%ADD10R,4.500000X3.300000*%
%ADD11C,1.790000*%
%ADD12R,1.790000X1.790000*%
%ADD13C,0.800000*%
%ADD14C,0.254000*%
G04 APERTURE END LIST*
D10*
X103460000Y-102616000D03*
X94660000Y-102616000D03*
D11*
X100296500Y-108458000D03*
X95216500Y-109728000D03*
X100296500Y-110998000D03*
X95216500Y-112268000D03*
X100296500Y-113538000D03*
X95216500Y-114808000D03*
D12*
X100296500Y-116078000D03*
D13*
X80645000Y-105410000D03*
X78486000Y-106680000D03*
X78486000Y-109220000D03*
X87884000Y-109220000D03*
X87884000Y-106680000D03*
X83185000Y-119380000D03*
X78435200Y-114300000D03*
X78435200Y-116840000D03*
X87884000Y-114300000D03*
X87884000Y-116840000D03*
X89662000Y-116840000D03*
X89408000Y-119126000D03*
X109982000Y-125476000D03*
X122174000Y-116840000D03*
X122174000Y-114300000D03*
X112776000Y-116840000D03*
X112776000Y-114300000D03*
X112014000Y-109220000D03*
X112014000Y-106680000D03*
X122936000Y-106680000D03*
X122936000Y-109220000D03*
X115316000Y-104140000D03*
D14*
G36*
X123800000Y-106110117D02*
G01*
X123739937Y-106020226D01*
X123595774Y-105876063D01*
X123426256Y-105762795D01*
X123237898Y-105684774D01*
X123037939Y-105645000D01*
X122834061Y-105645000D01*
X122634102Y-105684774D01*
X122445744Y-105762795D01*
X122276226Y-105876063D01*
X122132063Y-106020226D01*
X122018795Y-106189744D01*
X121940774Y-106378102D01*
X121901000Y-106578061D01*
X121901000Y-106781939D01*
X121940774Y-106981898D01*
X122018795Y-107170256D01*
X122132063Y-107339774D01*
X122276226Y-107483937D01*
X122445744Y-107597205D01*
X122634102Y-107675226D01*
X122834061Y-107715000D01*
X123037939Y-107715000D01*
X123237898Y-107675226D01*
X123426256Y-107597205D01*
X123595774Y-107483937D01*
X123739937Y-107339774D01*
X123800000Y-107249883D01*
X123800000Y-108650117D01*
X123739937Y-108560226D01*
X123595774Y-108416063D01*
X123426256Y-108302795D01*
X123237898Y-108224774D01*
X123037939Y-108185000D01*
X122834061Y-108185000D01*
X122634102Y-108224774D01*
X122445744Y-108302795D01*
X122276226Y-108416063D01*
X122132063Y-108560226D01*
X122018795Y-108729744D01*
X121940774Y-108918102D01*
X121901000Y-109118061D01*
X121901000Y-109321939D01*
X121940774Y-109521898D01*
X122018795Y-109710256D01*
X122132063Y-109879774D01*
X122276226Y-110023937D01*
X122445744Y-110137205D01*
X122634102Y-110215226D01*
X122834061Y-110255000D01*
X123037939Y-110255000D01*
X123237898Y-110215226D01*
X123426256Y-110137205D01*
X123595774Y-110023937D01*
X123739937Y-109879774D01*
X123800000Y-109789882D01*
X123800001Y-126340000D01*
X76860000Y-126340000D01*
X76860000Y-114657308D01*
X93686500Y-114657308D01*
X93686500Y-114958692D01*
X93745297Y-115254285D01*
X93860632Y-115532727D01*
X94028071Y-115783318D01*
X94241182Y-115996429D01*
X94491773Y-116163868D01*
X94770215Y-116279203D01*
X95065808Y-116338000D01*
X95367192Y-116338000D01*
X95662785Y-116279203D01*
X95941227Y-116163868D01*
X96191818Y-115996429D01*
X96404929Y-115783318D01*
X96572368Y-115532727D01*
X96687703Y-115254285D01*
X96701882Y-115183000D01*
X98763428Y-115183000D01*
X98763428Y-116973000D01*
X98775688Y-117097482D01*
X98811998Y-117217180D01*
X98870963Y-117327494D01*
X98950315Y-117424185D01*
X99047006Y-117503537D01*
X99157320Y-117562502D01*
X99277018Y-117598812D01*
X99401500Y-117611072D01*
X101191500Y-117611072D01*
X101315982Y-117598812D01*
X101435680Y-117562502D01*
X101545994Y-117503537D01*
X101642685Y-117424185D01*
X101722037Y-117327494D01*
X101781002Y-117217180D01*
X101817312Y-117097482D01*
X101829572Y-116973000D01*
X101829572Y-115183000D01*
X101817312Y-115058518D01*
X101781002Y-114938820D01*
X101722037Y-114828506D01*
X101642685Y-114731815D01*
X101545994Y-114652463D01*
X101435680Y-114593498D01*
X101411948Y-114586299D01*
X101484929Y-114513318D01*
X101652368Y-114262727D01*
X101767703Y-113984285D01*
X101826500Y-113688692D01*
X101826500Y-113387308D01*
X101767703Y-113091715D01*
X101652368Y-112813273D01*
X101484929Y-112562682D01*
X101271818Y-112349571D01*
X101149738Y-112268000D01*
X101271818Y-112186429D01*
X101484929Y-111973318D01*
X101652368Y-111722727D01*
X101767703Y-111444285D01*
X101826500Y-111148692D01*
X101826500Y-110847308D01*
X101767703Y-110551715D01*
X101652368Y-110273273D01*
X101484929Y-110022682D01*
X101271818Y-109809571D01*
X101149738Y-109728000D01*
X101271818Y-109646429D01*
X101484929Y-109433318D01*
X101652368Y-109182727D01*
X101679153Y-109118061D01*
X110979000Y-109118061D01*
X110979000Y-109321939D01*
X111018774Y-109521898D01*
X111096795Y-109710256D01*
X111210063Y-109879774D01*
X111354226Y-110023937D01*
X111523744Y-110137205D01*
X111712102Y-110215226D01*
X111912061Y-110255000D01*
X112115939Y-110255000D01*
X112315898Y-110215226D01*
X112504256Y-110137205D01*
X112673774Y-110023937D01*
X112817937Y-109879774D01*
X112931205Y-109710256D01*
X113009226Y-109521898D01*
X113049000Y-109321939D01*
X113049000Y-109118061D01*
X113009226Y-108918102D01*
X112931205Y-108729744D01*
X112817937Y-108560226D01*
X112673774Y-108416063D01*
X112504256Y-108302795D01*
X112315898Y-108224774D01*
X112115939Y-108185000D01*
X111912061Y-108185000D01*
X111712102Y-108224774D01*
X111523744Y-108302795D01*
X111354226Y-108416063D01*
X111210063Y-108560226D01*
X111096795Y-108729744D01*
X111018774Y-108918102D01*
X110979000Y-109118061D01*
X101679153Y-109118061D01*
X101767703Y-108904285D01*
X101826500Y-108608692D01*
X101826500Y-108307308D01*
X101767703Y-108011715D01*
X101652368Y-107733273D01*
X101484929Y-107482682D01*
X101271818Y-107269571D01*
X101021227Y-107102132D01*
X100742785Y-106986797D01*
X100447192Y-106928000D01*
X100145808Y-106928000D01*
X99850215Y-106986797D01*
X99571773Y-107102132D01*
X99321182Y-107269571D01*
X99108071Y-107482682D01*
X98940632Y-107733273D01*
X98825297Y-108011715D01*
X98766500Y-108307308D01*
X98766500Y-108608692D01*
X98825297Y-108904285D01*
X98940632Y-109182727D01*
X99108071Y-109433318D01*
X99321182Y-109646429D01*
X99443262Y-109728000D01*
X99321182Y-109809571D01*
X99108071Y-110022682D01*
X98940632Y-110273273D01*
X98825297Y-110551715D01*
X98766500Y-110847308D01*
X98766500Y-111148692D01*
X98825297Y-111444285D01*
X98940632Y-111722727D01*
X99108071Y-111973318D01*
X99321182Y-112186429D01*
X99443262Y-112268000D01*
X99321182Y-112349571D01*
X99108071Y-112562682D01*
X98940632Y-112813273D01*
X98825297Y-113091715D01*
X98766500Y-113387308D01*
X98766500Y-113688692D01*
X98825297Y-113984285D01*
X98940632Y-114262727D01*
X99108071Y-114513318D01*
X99181052Y-114586299D01*
X99157320Y-114593498D01*
X99047006Y-114652463D01*
X98950315Y-114731815D01*
X98870963Y-114828506D01*
X98811998Y-114938820D01*
X98775688Y-115058518D01*
X98763428Y-115183000D01*
X96701882Y-115183000D01*
X96746500Y-114958692D01*
X96746500Y-114657308D01*
X96687703Y-114361715D01*
X96572368Y-114083273D01*
X96404929Y-113832682D01*
X96191818Y-113619571D01*
X96036149Y-113515557D01*
X96097407Y-113328512D01*
X95216500Y-112447605D01*
X94335593Y-113328512D01*
X94396851Y-113515557D01*
X94241182Y-113619571D01*
X94028071Y-113832682D01*
X93860632Y-114083273D01*
X93745297Y-114361715D01*
X93686500Y-114657308D01*
X76860000Y-114657308D01*
X76860000Y-112334751D01*
X93680547Y-112334751D01*
X93723082Y-112633117D01*
X93823008Y-112917453D01*
X93902317Y-113065829D01*
X94155988Y-113148907D01*
X95036895Y-112268000D01*
X95396105Y-112268000D01*
X96277012Y-113148907D01*
X96530683Y-113065829D01*
X96661080Y-112794115D01*
X96735963Y-112502182D01*
X96752453Y-112201249D01*
X96709918Y-111902883D01*
X96609992Y-111618547D01*
X96530683Y-111470171D01*
X96277012Y-111387093D01*
X95396105Y-112268000D01*
X95036895Y-112268000D01*
X94155988Y-111387093D01*
X93902317Y-111470171D01*
X93771920Y-111741885D01*
X93697037Y-112033818D01*
X93680547Y-112334751D01*
X76860000Y-112334751D01*
X76860000Y-109118061D01*
X77451000Y-109118061D01*
X77451000Y-109321939D01*
X77490774Y-109521898D01*
X77568795Y-109710256D01*
X77682063Y-109879774D01*
X77826226Y-110023937D01*
X77995744Y-110137205D01*
X78184102Y-110215226D01*
X78384061Y-110255000D01*
X78587939Y-110255000D01*
X78787898Y-110215226D01*
X78976256Y-110137205D01*
X79145774Y-110023937D01*
X79289937Y-109879774D01*
X79403205Y-109710256D01*
X79481226Y-109521898D01*
X79521000Y-109321939D01*
X79521000Y-109118061D01*
X86849000Y-109118061D01*
X86849000Y-109321939D01*
X86888774Y-109521898D01*
X86966795Y-109710256D01*
X87080063Y-109879774D01*
X87224226Y-110023937D01*
X87393744Y-110137205D01*
X87582102Y-110215226D01*
X87782061Y-110255000D01*
X87985939Y-110255000D01*
X88185898Y-110215226D01*
X88374256Y-110137205D01*
X88543774Y-110023937D01*
X88687937Y-109879774D01*
X88801205Y-109710256D01*
X88856274Y-109577308D01*
X93686500Y-109577308D01*
X93686500Y-109878692D01*
X93745297Y-110174285D01*
X93860632Y-110452727D01*
X94028071Y-110703318D01*
X94241182Y-110916429D01*
X94396851Y-111020443D01*
X94335593Y-111207488D01*
X95216500Y-112088395D01*
X96097407Y-111207488D01*
X96036149Y-111020443D01*
X96191818Y-110916429D01*
X96404929Y-110703318D01*
X96572368Y-110452727D01*
X96687703Y-110174285D01*
X96746500Y-109878692D01*
X96746500Y-109577308D01*
X96687703Y-109281715D01*
X96572368Y-109003273D01*
X96404929Y-108752682D01*
X96191818Y-108539571D01*
X95941227Y-108372132D01*
X95662785Y-108256797D01*
X95367192Y-108198000D01*
X95065808Y-108198000D01*
X94770215Y-108256797D01*
X94491773Y-108372132D01*
X94241182Y-108539571D01*
X94028071Y-108752682D01*
X93860632Y-109003273D01*
X93745297Y-109281715D01*
X93686500Y-109577308D01*
X88856274Y-109577308D01*
X88879226Y-109521898D01*
X88919000Y-109321939D01*
X88919000Y-109118061D01*
X88879226Y-108918102D01*
X88801205Y-108729744D01*
X88687937Y-108560226D01*
X88543774Y-108416063D01*
X88374256Y-108302795D01*
X88185898Y-108224774D01*
X87985939Y-108185000D01*
X87782061Y-108185000D01*
X87582102Y-108224774D01*
X87393744Y-108302795D01*
X87224226Y-108416063D01*
X87080063Y-108560226D01*
X86966795Y-108729744D01*
X86888774Y-108918102D01*
X86849000Y-109118061D01*
X79521000Y-109118061D01*
X79481226Y-108918102D01*
X79403205Y-108729744D01*
X79289937Y-108560226D01*
X79145774Y-108416063D01*
X78976256Y-108302795D01*
X78787898Y-108224774D01*
X78587939Y-108185000D01*
X78384061Y-108185000D01*
X78184102Y-108224774D01*
X77995744Y-108302795D01*
X77826226Y-108416063D01*
X77682063Y-108560226D01*
X77568795Y-108729744D01*
X77490774Y-108918102D01*
X77451000Y-109118061D01*
X76860000Y-109118061D01*
X76860000Y-106578061D01*
X77451000Y-106578061D01*
X77451000Y-106781939D01*
X77490774Y-106981898D01*
X77568795Y-107170256D01*
X77682063Y-107339774D01*
X77826226Y-107483937D01*
X77995744Y-107597205D01*
X78184102Y-107675226D01*
X78384061Y-107715000D01*
X78587939Y-107715000D01*
X78787898Y-107675226D01*
X78976256Y-107597205D01*
X79145774Y-107483937D01*
X79289937Y-107339774D01*
X79403205Y-107170256D01*
X79481226Y-106981898D01*
X79521000Y-106781939D01*
X79521000Y-106578061D01*
X86849000Y-106578061D01*
X86849000Y-106781939D01*
X86888774Y-106981898D01*
X86966795Y-107170256D01*
X87080063Y-107339774D01*
X87224226Y-107483937D01*
X87393744Y-107597205D01*
X87582102Y-107675226D01*
X87782061Y-107715000D01*
X87985939Y-107715000D01*
X88185898Y-107675226D01*
X88374256Y-107597205D01*
X88543774Y-107483937D01*
X88687937Y-107339774D01*
X88801205Y-107170256D01*
X88879226Y-106981898D01*
X88919000Y-106781939D01*
X88919000Y-106578061D01*
X110979000Y-106578061D01*
X110979000Y-106781939D01*
X111018774Y-106981898D01*
X111096795Y-107170256D01*
X111210063Y-107339774D01*
X111354226Y-107483937D01*
X111523744Y-107597205D01*
X111712102Y-107675226D01*
X111912061Y-107715000D01*
X112115939Y-107715000D01*
X112315898Y-107675226D01*
X112504256Y-107597205D01*
X112673774Y-107483937D01*
X112817937Y-107339774D01*
X112931205Y-107170256D01*
X113009226Y-106981898D01*
X113049000Y-106781939D01*
X113049000Y-106578061D01*
X113009226Y-106378102D01*
X112931205Y-106189744D01*
X112817937Y-106020226D01*
X112673774Y-105876063D01*
X112504256Y-105762795D01*
X112315898Y-105684774D01*
X112115939Y-105645000D01*
X111912061Y-105645000D01*
X111712102Y-105684774D01*
X111523744Y-105762795D01*
X111354226Y-105876063D01*
X111210063Y-106020226D01*
X111096795Y-106189744D01*
X111018774Y-106378102D01*
X110979000Y-106578061D01*
X88919000Y-106578061D01*
X88879226Y-106378102D01*
X88801205Y-106189744D01*
X88687937Y-106020226D01*
X88543774Y-105876063D01*
X88374256Y-105762795D01*
X88185898Y-105684774D01*
X87985939Y-105645000D01*
X87782061Y-105645000D01*
X87582102Y-105684774D01*
X87393744Y-105762795D01*
X87224226Y-105876063D01*
X87080063Y-106020226D01*
X86966795Y-106189744D01*
X86888774Y-106378102D01*
X86849000Y-106578061D01*
X79521000Y-106578061D01*
X79481226Y-106378102D01*
X79403205Y-106189744D01*
X79289937Y-106020226D01*
X79145774Y-105876063D01*
X78976256Y-105762795D01*
X78787898Y-105684774D01*
X78587939Y-105645000D01*
X78384061Y-105645000D01*
X78184102Y-105684774D01*
X77995744Y-105762795D01*
X77826226Y-105876063D01*
X77682063Y-106020226D01*
X77568795Y-106189744D01*
X77490774Y-106378102D01*
X77451000Y-106578061D01*
X76860000Y-106578061D01*
X76860000Y-105308061D01*
X79610000Y-105308061D01*
X79610000Y-105511939D01*
X79649774Y-105711898D01*
X79727795Y-105900256D01*
X79841063Y-106069774D01*
X79985226Y-106213937D01*
X80154744Y-106327205D01*
X80343102Y-106405226D01*
X80543061Y-106445000D01*
X80746939Y-106445000D01*
X80946898Y-106405226D01*
X81135256Y-106327205D01*
X81304774Y-106213937D01*
X81448937Y-106069774D01*
X81562205Y-105900256D01*
X81640226Y-105711898D01*
X81680000Y-105511939D01*
X81680000Y-105308061D01*
X81640226Y-105108102D01*
X81562205Y-104919744D01*
X81448937Y-104750226D01*
X81304774Y-104606063D01*
X81135256Y-104492795D01*
X80946898Y-104414774D01*
X80746939Y-104375000D01*
X80543061Y-104375000D01*
X80343102Y-104414774D01*
X80154744Y-104492795D01*
X79985226Y-104606063D01*
X79841063Y-104750226D01*
X79727795Y-104919744D01*
X79649774Y-105108102D01*
X79610000Y-105308061D01*
X76860000Y-105308061D01*
X76860000Y-104266000D01*
X91771928Y-104266000D01*
X91784188Y-104390482D01*
X91820498Y-104510180D01*
X91879463Y-104620494D01*
X91958815Y-104717185D01*
X92055506Y-104796537D01*
X92165820Y-104855502D01*
X92285518Y-104891812D01*
X92410000Y-104904072D01*
X94374250Y-104901000D01*
X94533000Y-104742250D01*
X94533000Y-102743000D01*
X94787000Y-102743000D01*
X94787000Y-104742250D01*
X94945750Y-104901000D01*
X96910000Y-104904072D01*
X97034482Y-104891812D01*
X97154180Y-104855502D01*
X97264494Y-104796537D01*
X97361185Y-104717185D01*
X97440537Y-104620494D01*
X97499502Y-104510180D01*
X97535812Y-104390482D01*
X97548072Y-104266000D01*
X97545000Y-102901750D01*
X97386250Y-102743000D01*
X94787000Y-102743000D01*
X94533000Y-102743000D01*
X91933750Y-102743000D01*
X91775000Y-102901750D01*
X91771928Y-104266000D01*
X76860000Y-104266000D01*
X76860000Y-100966000D01*
X91771928Y-100966000D01*
X91775000Y-102330250D01*
X91933750Y-102489000D01*
X94533000Y-102489000D01*
X94533000Y-100489750D01*
X94787000Y-100489750D01*
X94787000Y-102489000D01*
X97386250Y-102489000D01*
X97545000Y-102330250D01*
X97548072Y-100966000D01*
X100571928Y-100966000D01*
X100571928Y-104266000D01*
X100584188Y-104390482D01*
X100620498Y-104510180D01*
X100679463Y-104620494D01*
X100758815Y-104717185D01*
X100855506Y-104796537D01*
X100965820Y-104855502D01*
X101085518Y-104891812D01*
X101210000Y-104904072D01*
X105710000Y-104904072D01*
X105834482Y-104891812D01*
X105954180Y-104855502D01*
X106064494Y-104796537D01*
X106161185Y-104717185D01*
X106240537Y-104620494D01*
X106299502Y-104510180D01*
X106335812Y-104390482D01*
X106348072Y-104266000D01*
X106348072Y-104038061D01*
X114281000Y-104038061D01*
X114281000Y-104241939D01*
X114320774Y-104441898D01*
X114398795Y-104630256D01*
X114512063Y-104799774D01*
X114656226Y-104943937D01*
X114825744Y-105057205D01*
X115014102Y-105135226D01*
X115214061Y-105175000D01*
X115417939Y-105175000D01*
X115617898Y-105135226D01*
X115806256Y-105057205D01*
X115975774Y-104943937D01*
X116119937Y-104799774D01*
X116233205Y-104630256D01*
X116311226Y-104441898D01*
X116351000Y-104241939D01*
X116351000Y-104038061D01*
X116311226Y-103838102D01*
X116233205Y-103649744D01*
X116119937Y-103480226D01*
X115975774Y-103336063D01*
X115806256Y-103222795D01*
X115617898Y-103144774D01*
X115417939Y-103105000D01*
X115214061Y-103105000D01*
X115014102Y-103144774D01*
X114825744Y-103222795D01*
X114656226Y-103336063D01*
X114512063Y-103480226D01*
X114398795Y-103649744D01*
X114320774Y-103838102D01*
X114281000Y-104038061D01*
X106348072Y-104038061D01*
X106348072Y-100966000D01*
X106335812Y-100841518D01*
X106299502Y-100721820D01*
X106240537Y-100611506D01*
X106161185Y-100514815D01*
X106064494Y-100435463D01*
X105954180Y-100376498D01*
X105834482Y-100340188D01*
X105710000Y-100327928D01*
X101210000Y-100327928D01*
X101085518Y-100340188D01*
X100965820Y-100376498D01*
X100855506Y-100435463D01*
X100758815Y-100514815D01*
X100679463Y-100611506D01*
X100620498Y-100721820D01*
X100584188Y-100841518D01*
X100571928Y-100966000D01*
X97548072Y-100966000D01*
X97535812Y-100841518D01*
X97499502Y-100721820D01*
X97440537Y-100611506D01*
X97361185Y-100514815D01*
X97264494Y-100435463D01*
X97154180Y-100376498D01*
X97034482Y-100340188D01*
X96910000Y-100327928D01*
X94945750Y-100331000D01*
X94787000Y-100489750D01*
X94533000Y-100489750D01*
X94374250Y-100331000D01*
X92410000Y-100327928D01*
X92285518Y-100340188D01*
X92165820Y-100376498D01*
X92055506Y-100435463D01*
X91958815Y-100514815D01*
X91879463Y-100611506D01*
X91820498Y-100721820D01*
X91784188Y-100841518D01*
X91771928Y-100966000D01*
X76860000Y-100966000D01*
X76860000Y-97180000D01*
X123800000Y-97180000D01*
X123800000Y-106110117D01*
G37*
X123800000Y-106110117D02*
X123739937Y-106020226D01*
X123595774Y-105876063D01*
X123426256Y-105762795D01*
X123237898Y-105684774D01*
X123037939Y-105645000D01*
X122834061Y-105645000D01*
X122634102Y-105684774D01*
X122445744Y-105762795D01*
X122276226Y-105876063D01*
X122132063Y-106020226D01*
X122018795Y-106189744D01*
X121940774Y-106378102D01*
X121901000Y-106578061D01*
X121901000Y-106781939D01*
X121940774Y-106981898D01*
X122018795Y-107170256D01*
X122132063Y-107339774D01*
X122276226Y-107483937D01*
X122445744Y-107597205D01*
X122634102Y-107675226D01*
X122834061Y-107715000D01*
X123037939Y-107715000D01*
X123237898Y-107675226D01*
X123426256Y-107597205D01*
X123595774Y-107483937D01*
X123739937Y-107339774D01*
X123800000Y-107249883D01*
X123800000Y-108650117D01*
X123739937Y-108560226D01*
X123595774Y-108416063D01*
X123426256Y-108302795D01*
X123237898Y-108224774D01*
X123037939Y-108185000D01*
X122834061Y-108185000D01*
X122634102Y-108224774D01*
X122445744Y-108302795D01*
X122276226Y-108416063D01*
X122132063Y-108560226D01*
X122018795Y-108729744D01*
X121940774Y-108918102D01*
X121901000Y-109118061D01*
X121901000Y-109321939D01*
X121940774Y-109521898D01*
X122018795Y-109710256D01*
X122132063Y-109879774D01*
X122276226Y-110023937D01*
X122445744Y-110137205D01*
X122634102Y-110215226D01*
X122834061Y-110255000D01*
X123037939Y-110255000D01*
X123237898Y-110215226D01*
X123426256Y-110137205D01*
X123595774Y-110023937D01*
X123739937Y-109879774D01*
X123800000Y-109789882D01*
X123800001Y-126340000D01*
X76860000Y-126340000D01*
X76860000Y-114657308D01*
X93686500Y-114657308D01*
X93686500Y-114958692D01*
X93745297Y-115254285D01*
X93860632Y-115532727D01*
X94028071Y-115783318D01*
X94241182Y-115996429D01*
X94491773Y-116163868D01*
X94770215Y-116279203D01*
X95065808Y-116338000D01*
X95367192Y-116338000D01*
X95662785Y-116279203D01*
X95941227Y-116163868D01*
X96191818Y-115996429D01*
X96404929Y-115783318D01*
X96572368Y-115532727D01*
X96687703Y-115254285D01*
X96701882Y-115183000D01*
X98763428Y-115183000D01*
X98763428Y-116973000D01*
X98775688Y-117097482D01*
X98811998Y-117217180D01*
X98870963Y-117327494D01*
X98950315Y-117424185D01*
X99047006Y-117503537D01*
X99157320Y-117562502D01*
X99277018Y-117598812D01*
X99401500Y-117611072D01*
X101191500Y-117611072D01*
X101315982Y-117598812D01*
X101435680Y-117562502D01*
X101545994Y-117503537D01*
X101642685Y-117424185D01*
X101722037Y-117327494D01*
X101781002Y-117217180D01*
X101817312Y-117097482D01*
X101829572Y-116973000D01*
X101829572Y-115183000D01*
X101817312Y-115058518D01*
X101781002Y-114938820D01*
X101722037Y-114828506D01*
X101642685Y-114731815D01*
X101545994Y-114652463D01*
X101435680Y-114593498D01*
X101411948Y-114586299D01*
X101484929Y-114513318D01*
X101652368Y-114262727D01*
X101767703Y-113984285D01*
X101826500Y-113688692D01*
X101826500Y-113387308D01*
X101767703Y-113091715D01*
X101652368Y-112813273D01*
X101484929Y-112562682D01*
X101271818Y-112349571D01*
X101149738Y-112268000D01*
X101271818Y-112186429D01*
X101484929Y-111973318D01*
X101652368Y-111722727D01*
X101767703Y-111444285D01*
X101826500Y-111148692D01*
X101826500Y-110847308D01*
X101767703Y-110551715D01*
X101652368Y-110273273D01*
X101484929Y-110022682D01*
X101271818Y-109809571D01*
X101149738Y-109728000D01*
X101271818Y-109646429D01*
X101484929Y-109433318D01*
X101652368Y-109182727D01*
X101679153Y-109118061D01*
X110979000Y-109118061D01*
X110979000Y-109321939D01*
X111018774Y-109521898D01*
X111096795Y-109710256D01*
X111210063Y-109879774D01*
X111354226Y-110023937D01*
X111523744Y-110137205D01*
X111712102Y-110215226D01*
X111912061Y-110255000D01*
X112115939Y-110255000D01*
X112315898Y-110215226D01*
X112504256Y-110137205D01*
X112673774Y-110023937D01*
X112817937Y-109879774D01*
X112931205Y-109710256D01*
X113009226Y-109521898D01*
X113049000Y-109321939D01*
X113049000Y-109118061D01*
X113009226Y-108918102D01*
X112931205Y-108729744D01*
X112817937Y-108560226D01*
X112673774Y-108416063D01*
X112504256Y-108302795D01*
X112315898Y-108224774D01*
X112115939Y-108185000D01*
X111912061Y-108185000D01*
X111712102Y-108224774D01*
X111523744Y-108302795D01*
X111354226Y-108416063D01*
X111210063Y-108560226D01*
X111096795Y-108729744D01*
X111018774Y-108918102D01*
X110979000Y-109118061D01*
X101679153Y-109118061D01*
X101767703Y-108904285D01*
X101826500Y-108608692D01*
X101826500Y-108307308D01*
X101767703Y-108011715D01*
X101652368Y-107733273D01*
X101484929Y-107482682D01*
X101271818Y-107269571D01*
X101021227Y-107102132D01*
X100742785Y-106986797D01*
X100447192Y-106928000D01*
X100145808Y-106928000D01*
X99850215Y-106986797D01*
X99571773Y-107102132D01*
X99321182Y-107269571D01*
X99108071Y-107482682D01*
X98940632Y-107733273D01*
X98825297Y-108011715D01*
X98766500Y-108307308D01*
X98766500Y-108608692D01*
X98825297Y-108904285D01*
X98940632Y-109182727D01*
X99108071Y-109433318D01*
X99321182Y-109646429D01*
X99443262Y-109728000D01*
X99321182Y-109809571D01*
X99108071Y-110022682D01*
X98940632Y-110273273D01*
X98825297Y-110551715D01*
X98766500Y-110847308D01*
X98766500Y-111148692D01*
X98825297Y-111444285D01*
X98940632Y-111722727D01*
X99108071Y-111973318D01*
X99321182Y-112186429D01*
X99443262Y-112268000D01*
X99321182Y-112349571D01*
X99108071Y-112562682D01*
X98940632Y-112813273D01*
X98825297Y-113091715D01*
X98766500Y-113387308D01*
X98766500Y-113688692D01*
X98825297Y-113984285D01*
X98940632Y-114262727D01*
X99108071Y-114513318D01*
X99181052Y-114586299D01*
X99157320Y-114593498D01*
X99047006Y-114652463D01*
X98950315Y-114731815D01*
X98870963Y-114828506D01*
X98811998Y-114938820D01*
X98775688Y-115058518D01*
X98763428Y-115183000D01*
X96701882Y-115183000D01*
X96746500Y-114958692D01*
X96746500Y-114657308D01*
X96687703Y-114361715D01*
X96572368Y-114083273D01*
X96404929Y-113832682D01*
X96191818Y-113619571D01*
X96036149Y-113515557D01*
X96097407Y-113328512D01*
X95216500Y-112447605D01*
X94335593Y-113328512D01*
X94396851Y-113515557D01*
X94241182Y-113619571D01*
X94028071Y-113832682D01*
X93860632Y-114083273D01*
X93745297Y-114361715D01*
X93686500Y-114657308D01*
X76860000Y-114657308D01*
X76860000Y-112334751D01*
X93680547Y-112334751D01*
X93723082Y-112633117D01*
X93823008Y-112917453D01*
X93902317Y-113065829D01*
X94155988Y-113148907D01*
X95036895Y-112268000D01*
X95396105Y-112268000D01*
X96277012Y-113148907D01*
X96530683Y-113065829D01*
X96661080Y-112794115D01*
X96735963Y-112502182D01*
X96752453Y-112201249D01*
X96709918Y-111902883D01*
X96609992Y-111618547D01*
X96530683Y-111470171D01*
X96277012Y-111387093D01*
X95396105Y-112268000D01*
X95036895Y-112268000D01*
X94155988Y-111387093D01*
X93902317Y-111470171D01*
X93771920Y-111741885D01*
X93697037Y-112033818D01*
X93680547Y-112334751D01*
X76860000Y-112334751D01*
X76860000Y-109118061D01*
X77451000Y-109118061D01*
X77451000Y-109321939D01*
X77490774Y-109521898D01*
X77568795Y-109710256D01*
X77682063Y-109879774D01*
X77826226Y-110023937D01*
X77995744Y-110137205D01*
X78184102Y-110215226D01*
X78384061Y-110255000D01*
X78587939Y-110255000D01*
X78787898Y-110215226D01*
X78976256Y-110137205D01*
X79145774Y-110023937D01*
X79289937Y-109879774D01*
X79403205Y-109710256D01*
X79481226Y-109521898D01*
X79521000Y-109321939D01*
X79521000Y-109118061D01*
X86849000Y-109118061D01*
X86849000Y-109321939D01*
X86888774Y-109521898D01*
X86966795Y-109710256D01*
X87080063Y-109879774D01*
X87224226Y-110023937D01*
X87393744Y-110137205D01*
X87582102Y-110215226D01*
X87782061Y-110255000D01*
X87985939Y-110255000D01*
X88185898Y-110215226D01*
X88374256Y-110137205D01*
X88543774Y-110023937D01*
X88687937Y-109879774D01*
X88801205Y-109710256D01*
X88856274Y-109577308D01*
X93686500Y-109577308D01*
X93686500Y-109878692D01*
X93745297Y-110174285D01*
X93860632Y-110452727D01*
X94028071Y-110703318D01*
X94241182Y-110916429D01*
X94396851Y-111020443D01*
X94335593Y-111207488D01*
X95216500Y-112088395D01*
X96097407Y-111207488D01*
X96036149Y-111020443D01*
X96191818Y-110916429D01*
X96404929Y-110703318D01*
X96572368Y-110452727D01*
X96687703Y-110174285D01*
X96746500Y-109878692D01*
X96746500Y-109577308D01*
X96687703Y-109281715D01*
X96572368Y-109003273D01*
X96404929Y-108752682D01*
X96191818Y-108539571D01*
X95941227Y-108372132D01*
X95662785Y-108256797D01*
X95367192Y-108198000D01*
X95065808Y-108198000D01*
X94770215Y-108256797D01*
X94491773Y-108372132D01*
X94241182Y-108539571D01*
X94028071Y-108752682D01*
X93860632Y-109003273D01*
X93745297Y-109281715D01*
X93686500Y-109577308D01*
X88856274Y-109577308D01*
X88879226Y-109521898D01*
X88919000Y-109321939D01*
X88919000Y-109118061D01*
X88879226Y-108918102D01*
X88801205Y-108729744D01*
X88687937Y-108560226D01*
X88543774Y-108416063D01*
X88374256Y-108302795D01*
X88185898Y-108224774D01*
X87985939Y-108185000D01*
X87782061Y-108185000D01*
X87582102Y-108224774D01*
X87393744Y-108302795D01*
X87224226Y-108416063D01*
X87080063Y-108560226D01*
X86966795Y-108729744D01*
X86888774Y-108918102D01*
X86849000Y-109118061D01*
X79521000Y-109118061D01*
X79481226Y-108918102D01*
X79403205Y-108729744D01*
X79289937Y-108560226D01*
X79145774Y-108416063D01*
X78976256Y-108302795D01*
X78787898Y-108224774D01*
X78587939Y-108185000D01*
X78384061Y-108185000D01*
X78184102Y-108224774D01*
X77995744Y-108302795D01*
X77826226Y-108416063D01*
X77682063Y-108560226D01*
X77568795Y-108729744D01*
X77490774Y-108918102D01*
X77451000Y-109118061D01*
X76860000Y-109118061D01*
X76860000Y-106578061D01*
X77451000Y-106578061D01*
X77451000Y-106781939D01*
X77490774Y-106981898D01*
X77568795Y-107170256D01*
X77682063Y-107339774D01*
X77826226Y-107483937D01*
X77995744Y-107597205D01*
X78184102Y-107675226D01*
X78384061Y-107715000D01*
X78587939Y-107715000D01*
X78787898Y-107675226D01*
X78976256Y-107597205D01*
X79145774Y-107483937D01*
X79289937Y-107339774D01*
X79403205Y-107170256D01*
X79481226Y-106981898D01*
X79521000Y-106781939D01*
X79521000Y-106578061D01*
X86849000Y-106578061D01*
X86849000Y-106781939D01*
X86888774Y-106981898D01*
X86966795Y-107170256D01*
X87080063Y-107339774D01*
X87224226Y-107483937D01*
X87393744Y-107597205D01*
X87582102Y-107675226D01*
X87782061Y-107715000D01*
X87985939Y-107715000D01*
X88185898Y-107675226D01*
X88374256Y-107597205D01*
X88543774Y-107483937D01*
X88687937Y-107339774D01*
X88801205Y-107170256D01*
X88879226Y-106981898D01*
X88919000Y-106781939D01*
X88919000Y-106578061D01*
X110979000Y-106578061D01*
X110979000Y-106781939D01*
X111018774Y-106981898D01*
X111096795Y-107170256D01*
X111210063Y-107339774D01*
X111354226Y-107483937D01*
X111523744Y-107597205D01*
X111712102Y-107675226D01*
X111912061Y-107715000D01*
X112115939Y-107715000D01*
X112315898Y-107675226D01*
X112504256Y-107597205D01*
X112673774Y-107483937D01*
X112817937Y-107339774D01*
X112931205Y-107170256D01*
X113009226Y-106981898D01*
X113049000Y-106781939D01*
X113049000Y-106578061D01*
X113009226Y-106378102D01*
X112931205Y-106189744D01*
X112817937Y-106020226D01*
X112673774Y-105876063D01*
X112504256Y-105762795D01*
X112315898Y-105684774D01*
X112115939Y-105645000D01*
X111912061Y-105645000D01*
X111712102Y-105684774D01*
X111523744Y-105762795D01*
X111354226Y-105876063D01*
X111210063Y-106020226D01*
X111096795Y-106189744D01*
X111018774Y-106378102D01*
X110979000Y-106578061D01*
X88919000Y-106578061D01*
X88879226Y-106378102D01*
X88801205Y-106189744D01*
X88687937Y-106020226D01*
X88543774Y-105876063D01*
X88374256Y-105762795D01*
X88185898Y-105684774D01*
X87985939Y-105645000D01*
X87782061Y-105645000D01*
X87582102Y-105684774D01*
X87393744Y-105762795D01*
X87224226Y-105876063D01*
X87080063Y-106020226D01*
X86966795Y-106189744D01*
X86888774Y-106378102D01*
X86849000Y-106578061D01*
X79521000Y-106578061D01*
X79481226Y-106378102D01*
X79403205Y-106189744D01*
X79289937Y-106020226D01*
X79145774Y-105876063D01*
X78976256Y-105762795D01*
X78787898Y-105684774D01*
X78587939Y-105645000D01*
X78384061Y-105645000D01*
X78184102Y-105684774D01*
X77995744Y-105762795D01*
X77826226Y-105876063D01*
X77682063Y-106020226D01*
X77568795Y-106189744D01*
X77490774Y-106378102D01*
X77451000Y-106578061D01*
X76860000Y-106578061D01*
X76860000Y-105308061D01*
X79610000Y-105308061D01*
X79610000Y-105511939D01*
X79649774Y-105711898D01*
X79727795Y-105900256D01*
X79841063Y-106069774D01*
X79985226Y-106213937D01*
X80154744Y-106327205D01*
X80343102Y-106405226D01*
X80543061Y-106445000D01*
X80746939Y-106445000D01*
X80946898Y-106405226D01*
X81135256Y-106327205D01*
X81304774Y-106213937D01*
X81448937Y-106069774D01*
X81562205Y-105900256D01*
X81640226Y-105711898D01*
X81680000Y-105511939D01*
X81680000Y-105308061D01*
X81640226Y-105108102D01*
X81562205Y-104919744D01*
X81448937Y-104750226D01*
X81304774Y-104606063D01*
X81135256Y-104492795D01*
X80946898Y-104414774D01*
X80746939Y-104375000D01*
X80543061Y-104375000D01*
X80343102Y-104414774D01*
X80154744Y-104492795D01*
X79985226Y-104606063D01*
X79841063Y-104750226D01*
X79727795Y-104919744D01*
X79649774Y-105108102D01*
X79610000Y-105308061D01*
X76860000Y-105308061D01*
X76860000Y-104266000D01*
X91771928Y-104266000D01*
X91784188Y-104390482D01*
X91820498Y-104510180D01*
X91879463Y-104620494D01*
X91958815Y-104717185D01*
X92055506Y-104796537D01*
X92165820Y-104855502D01*
X92285518Y-104891812D01*
X92410000Y-104904072D01*
X94374250Y-104901000D01*
X94533000Y-104742250D01*
X94533000Y-102743000D01*
X94787000Y-102743000D01*
X94787000Y-104742250D01*
X94945750Y-104901000D01*
X96910000Y-104904072D01*
X97034482Y-104891812D01*
X97154180Y-104855502D01*
X97264494Y-104796537D01*
X97361185Y-104717185D01*
X97440537Y-104620494D01*
X97499502Y-104510180D01*
X97535812Y-104390482D01*
X97548072Y-104266000D01*
X97545000Y-102901750D01*
X97386250Y-102743000D01*
X94787000Y-102743000D01*
X94533000Y-102743000D01*
X91933750Y-102743000D01*
X91775000Y-102901750D01*
X91771928Y-104266000D01*
X76860000Y-104266000D01*
X76860000Y-100966000D01*
X91771928Y-100966000D01*
X91775000Y-102330250D01*
X91933750Y-102489000D01*
X94533000Y-102489000D01*
X94533000Y-100489750D01*
X94787000Y-100489750D01*
X94787000Y-102489000D01*
X97386250Y-102489000D01*
X97545000Y-102330250D01*
X97548072Y-100966000D01*
X100571928Y-100966000D01*
X100571928Y-104266000D01*
X100584188Y-104390482D01*
X100620498Y-104510180D01*
X100679463Y-104620494D01*
X100758815Y-104717185D01*
X100855506Y-104796537D01*
X100965820Y-104855502D01*
X101085518Y-104891812D01*
X101210000Y-104904072D01*
X105710000Y-104904072D01*
X105834482Y-104891812D01*
X105954180Y-104855502D01*
X106064494Y-104796537D01*
X106161185Y-104717185D01*
X106240537Y-104620494D01*
X106299502Y-104510180D01*
X106335812Y-104390482D01*
X106348072Y-104266000D01*
X106348072Y-104038061D01*
X114281000Y-104038061D01*
X114281000Y-104241939D01*
X114320774Y-104441898D01*
X114398795Y-104630256D01*
X114512063Y-104799774D01*
X114656226Y-104943937D01*
X114825744Y-105057205D01*
X115014102Y-105135226D01*
X115214061Y-105175000D01*
X115417939Y-105175000D01*
X115617898Y-105135226D01*
X115806256Y-105057205D01*
X115975774Y-104943937D01*
X116119937Y-104799774D01*
X116233205Y-104630256D01*
X116311226Y-104441898D01*
X116351000Y-104241939D01*
X116351000Y-104038061D01*
X116311226Y-103838102D01*
X116233205Y-103649744D01*
X116119937Y-103480226D01*
X115975774Y-103336063D01*
X115806256Y-103222795D01*
X115617898Y-103144774D01*
X115417939Y-103105000D01*
X115214061Y-103105000D01*
X115014102Y-103144774D01*
X114825744Y-103222795D01*
X114656226Y-103336063D01*
X114512063Y-103480226D01*
X114398795Y-103649744D01*
X114320774Y-103838102D01*
X114281000Y-104038061D01*
X106348072Y-104038061D01*
X106348072Y-100966000D01*
X106335812Y-100841518D01*
X106299502Y-100721820D01*
X106240537Y-100611506D01*
X106161185Y-100514815D01*
X106064494Y-100435463D01*
X105954180Y-100376498D01*
X105834482Y-100340188D01*
X105710000Y-100327928D01*
X101210000Y-100327928D01*
X101085518Y-100340188D01*
X100965820Y-100376498D01*
X100855506Y-100435463D01*
X100758815Y-100514815D01*
X100679463Y-100611506D01*
X100620498Y-100721820D01*
X100584188Y-100841518D01*
X100571928Y-100966000D01*
X97548072Y-100966000D01*
X97535812Y-100841518D01*
X97499502Y-100721820D01*
X97440537Y-100611506D01*
X97361185Y-100514815D01*
X97264494Y-100435463D01*
X97154180Y-100376498D01*
X97034482Y-100340188D01*
X96910000Y-100327928D01*
X94945750Y-100331000D01*
X94787000Y-100489750D01*
X94533000Y-100489750D01*
X94374250Y-100331000D01*
X92410000Y-100327928D01*
X92285518Y-100340188D01*
X92165820Y-100376498D01*
X92055506Y-100435463D01*
X91958815Y-100514815D01*
X91879463Y-100611506D01*
X91820498Y-100721820D01*
X91784188Y-100841518D01*
X91771928Y-100966000D01*
X76860000Y-100966000D01*
X76860000Y-97180000D01*
X123800000Y-97180000D01*
X123800000Y-106110117D01*
M02*
