G04 #@! TF.GenerationSoftware,KiCad,Pcbnew,(5.1.5-0-10_14)*
G04 #@! TF.CreationDate,2021-11-11T15:24:48-05:00*
G04 #@! TF.ProjectId,Readout-DC-Board,52656164-6f75-4742-9d44-432d426f6172,rev?*
G04 #@! TF.SameCoordinates,Original*
G04 #@! TF.FileFunction,Copper,L1,Top*
G04 #@! TF.FilePolarity,Positive*
%FSLAX46Y46*%
G04 Gerber Fmt 4.6, Leading zero omitted, Abs format (unit mm)*
G04 Created by KiCad (PCBNEW (5.1.5-0-10_14)) date 2021-11-11 15:24:48*
%MOMM*%
%LPD*%
G04 APERTURE LIST*
%ADD10R,3.000000X5.500000*%
%ADD11R,1.900000X4.400000*%
%ADD12R,1.250000X1.500000*%
%ADD13R,1.900000X4.200000*%
%ADD14R,4.500000X3.300000*%
%ADD15R,2.000000X1.700000*%
%ADD16C,1.790000*%
%ADD17R,1.790000X1.790000*%
%ADD18C,0.800000*%
%ADD19C,0.250000*%
%ADD20C,0.914400*%
%ADD21C,0.457200*%
G04 APERTURE END LIST*
D10*
X109550000Y-104140000D03*
X119050000Y-104140000D03*
D11*
X83185000Y-115475000D03*
X83185000Y-106775000D03*
D12*
X89662000Y-112776000D03*
X89662000Y-115276000D03*
X103124000Y-115276000D03*
X103124000Y-112776000D03*
D13*
X109982000Y-122580000D03*
X109982000Y-116180000D03*
D14*
X103460000Y-102616000D03*
X94660000Y-102616000D03*
D15*
X91250000Y-119126000D03*
X95250000Y-119126000D03*
X103124000Y-119126000D03*
X99124000Y-119126000D03*
D16*
X100296500Y-108458000D03*
X95216500Y-109728000D03*
X100296500Y-110998000D03*
X95216500Y-112268000D03*
X100296500Y-113538000D03*
X95216500Y-114808000D03*
D17*
X100296500Y-116078000D03*
D18*
X80645000Y-105410000D03*
X78486000Y-106680000D03*
X78486000Y-109220000D03*
X87884000Y-109220000D03*
X87884000Y-106680000D03*
X83185000Y-119380000D03*
X78435200Y-114300000D03*
X78435200Y-116840000D03*
X87884000Y-114300000D03*
X87884000Y-116840000D03*
X89662000Y-116840000D03*
X89408000Y-119126000D03*
X109982000Y-125476000D03*
X122174000Y-116840000D03*
X122174000Y-114300000D03*
X112776000Y-116840000D03*
X112776000Y-114300000D03*
X112014000Y-109220000D03*
X112014000Y-106680000D03*
X122936000Y-106680000D03*
X122936000Y-109220000D03*
X115316000Y-104140000D03*
D19*
X83191600Y-106781600D02*
X83185000Y-106775000D01*
D20*
X81820000Y-105410000D02*
X83185000Y-106775000D01*
X80645000Y-105410000D02*
X81820000Y-105410000D01*
X89662000Y-110998000D02*
X87884000Y-109220000D01*
X89662000Y-112776000D02*
X89662000Y-110998000D01*
X89662000Y-112776000D02*
X91694000Y-112776000D01*
X91694000Y-112776000D02*
X93726000Y-114808000D01*
X93726000Y-114808000D02*
X95216500Y-114808000D01*
X83185000Y-115475000D02*
X83185000Y-119380000D01*
X89662000Y-115276000D02*
X89662000Y-116840000D01*
D21*
X91250000Y-119126000D02*
X89408000Y-119126000D01*
X109982000Y-122580000D02*
X109982000Y-125476000D01*
D20*
X102322000Y-116078000D02*
X103124000Y-115276000D01*
X100296500Y-116078000D02*
X102322000Y-116078000D01*
X108026000Y-102616000D02*
X109550000Y-104140000D01*
X104060000Y-102616000D02*
X108026000Y-102616000D01*
X109550000Y-107804400D02*
X109550000Y-104140000D01*
X109550000Y-110389400D02*
X109550000Y-107804400D01*
X104663400Y-115276000D02*
X109550000Y-110389400D01*
X103124000Y-115276000D02*
X104663400Y-115276000D01*
X102362000Y-113538000D02*
X103124000Y-112776000D01*
X100296500Y-113538000D02*
X102362000Y-113538000D01*
D21*
X103124000Y-119126000D02*
X105664000Y-119126000D01*
X105664000Y-119126000D02*
X108204000Y-116586000D01*
X108204000Y-116550800D02*
X108574800Y-116180000D01*
X108574800Y-116180000D02*
X109982000Y-116180000D01*
X108204000Y-116586000D02*
X108204000Y-116550800D01*
D20*
X119050000Y-104140000D02*
X115316000Y-104140000D01*
X115316000Y-104140000D02*
X115316000Y-104140000D01*
D21*
X112014000Y-109220000D02*
X112014000Y-110998000D01*
X109982000Y-113030000D02*
X109982000Y-116180000D01*
X112014000Y-110998000D02*
X109982000Y-113030000D01*
X95250000Y-119126000D02*
X99124000Y-119126000D01*
X97790000Y-117792000D02*
X99124000Y-119126000D01*
X97790000Y-111035779D02*
X97790000Y-117792000D01*
X96482221Y-109728000D02*
X97790000Y-111035779D01*
X95216500Y-109728000D02*
X96482221Y-109728000D01*
M02*
