G04 #@! TF.GenerationSoftware,KiCad,Pcbnew,(5.1.5-0-10_14)*
G04 #@! TF.CreationDate,2021-11-11T15:24:48-05:00*
G04 #@! TF.ProjectId,Readout-DC-Board,52656164-6f75-4742-9d44-432d426f6172,rev?*
G04 #@! TF.SameCoordinates,Original*
G04 #@! TF.FileFunction,Legend,Bot*
G04 #@! TF.FilePolarity,Positive*
%FSLAX46Y46*%
G04 Gerber Fmt 4.6, Leading zero omitted, Abs format (unit mm)*
G04 Created by KiCad (PCBNEW (5.1.5-0-10_14)) date 2021-11-11 15:24:48*
%MOMM*%
%LPD*%
G04 APERTURE LIST*
%ADD10C,0.120000*%
%ADD11C,0.150000*%
%ADD12R,3.150000X1.000000*%
%ADD13R,4.500000X3.300000*%
%ADD14C,1.790000*%
%ADD15R,1.790000X1.790000*%
G04 APERTURE END LIST*
D10*
X85785000Y-105350000D02*
X80585000Y-105350000D01*
X85785000Y-118170000D02*
X80585000Y-118170000D01*
X87225000Y-105920000D02*
X85785000Y-105920000D01*
X85785000Y-105350000D02*
X85785000Y-105920000D01*
X80585000Y-105350000D02*
X80585000Y-105920000D01*
X85785000Y-117600000D02*
X85785000Y-118170000D01*
X80585000Y-117600000D02*
X80585000Y-118170000D01*
X85785000Y-107440000D02*
X85785000Y-108460000D01*
X80585000Y-107440000D02*
X80585000Y-108460000D01*
X85785000Y-109980000D02*
X85785000Y-111000000D01*
X80585000Y-109980000D02*
X80585000Y-111000000D01*
X85785000Y-112520000D02*
X85785000Y-113540000D01*
X80585000Y-112520000D02*
X80585000Y-113540000D01*
X85785000Y-115060000D02*
X85785000Y-116080000D01*
X80585000Y-115060000D02*
X80585000Y-116080000D01*
X120075000Y-105350000D02*
X114875000Y-105350000D01*
X120075000Y-118170000D02*
X114875000Y-118170000D01*
X121515000Y-105920000D02*
X120075000Y-105920000D01*
X120075000Y-105350000D02*
X120075000Y-105920000D01*
X114875000Y-105350000D02*
X114875000Y-105920000D01*
X120075000Y-117600000D02*
X120075000Y-118170000D01*
X114875000Y-117600000D02*
X114875000Y-118170000D01*
X120075000Y-107440000D02*
X120075000Y-108460000D01*
X114875000Y-107440000D02*
X114875000Y-108460000D01*
X120075000Y-109980000D02*
X120075000Y-111000000D01*
X114875000Y-109980000D02*
X114875000Y-111000000D01*
X120075000Y-112520000D02*
X120075000Y-113540000D01*
X114875000Y-112520000D02*
X114875000Y-113540000D01*
X120075000Y-115060000D02*
X120075000Y-116080000D01*
X114875000Y-115060000D02*
X114875000Y-116080000D01*
D11*
X83518333Y-103802380D02*
X83518333Y-104516666D01*
X83565952Y-104659523D01*
X83661190Y-104754761D01*
X83804047Y-104802380D01*
X83899285Y-104802380D01*
X82518333Y-104802380D02*
X83089761Y-104802380D01*
X82804047Y-104802380D02*
X82804047Y-103802380D01*
X82899285Y-103945238D01*
X82994523Y-104040476D01*
X83089761Y-104088095D01*
X117808333Y-103802380D02*
X117808333Y-104516666D01*
X117855952Y-104659523D01*
X117951190Y-104754761D01*
X118094047Y-104802380D01*
X118189285Y-104802380D01*
X117379761Y-103897619D02*
X117332142Y-103850000D01*
X117236904Y-103802380D01*
X116998809Y-103802380D01*
X116903571Y-103850000D01*
X116855952Y-103897619D01*
X116808333Y-103992857D01*
X116808333Y-104088095D01*
X116855952Y-104230952D01*
X117427380Y-104802380D01*
X116808333Y-104802380D01*
%LPC*%
D12*
X85710000Y-106680000D03*
X80660000Y-106680000D03*
X85710000Y-109220000D03*
X80660000Y-109220000D03*
X85710000Y-111760000D03*
X80660000Y-111760000D03*
X85710000Y-114300000D03*
X80660000Y-114300000D03*
X85710000Y-116840000D03*
X80660000Y-116840000D03*
D13*
X103460000Y-102616000D03*
X94660000Y-102616000D03*
D12*
X120000000Y-106680000D03*
X114950000Y-106680000D03*
X120000000Y-109220000D03*
X114950000Y-109220000D03*
X120000000Y-111760000D03*
X114950000Y-111760000D03*
X120000000Y-114300000D03*
X114950000Y-114300000D03*
X120000000Y-116840000D03*
X114950000Y-116840000D03*
D14*
X100296500Y-108458000D03*
X95216500Y-109728000D03*
X100296500Y-110998000D03*
X95216500Y-112268000D03*
X100296500Y-113538000D03*
X95216500Y-114808000D03*
D15*
X100296500Y-116078000D03*
M02*
